PathFileType	4	(X/Y/Z)	D:\TRACE\v60_Jaco2_6-2-23\BothDRS_Motion3_10-v60.trc
DataRate	CameraRate	NumFrames	NumMarkers	Units	OrigDataRate	OrigDataStartFrame	OrigNumFrames
100.00	100.00	      35	9	mm	100.00	3501	      7000
Frame#	Time	front left toe			Front right toe			aft left toe			aft right toe			Arm			FL body			FR body			AL Body			AR Body			
		X1	Y1	Z1	X2	Y2	Z2	X3	Y3	Z3	X4	Y4	Z4	X5	Y5	Z5	X6	Y6	Z6	X7	Y7	Z7	X8	Y8	Z8	X9	Y9	Z9	

3501	35.000	-161.41611	9.19033	-201.04021	270.54984	38.35421	-210.18509	-109.25144	54.88739	409.74100	198.15637	20.93305	430.97131	119.92825	1081.55872	-629.28064	-13.36112	500.14700	-378.99384	145.36691	493.04565	-376.79709	-17.56999	572.85278	562.85504	133.95090	556.58685	564.82593	
3502	35.010	-161.24704	9.32790	-200.99030	272.99112	31.56753	-211.59662	-106.53306	47.70332	408.59982	198.28265	20.82413	430.78922	120.52758	1081.20581	-630.48218	-12.12192	499.88626	-380.02539	145.96123	492.78751	-377.73657	-14.91789	572.96674	561.88348	136.30846	556.62579	563.59790	
3503	35.020	-161.15410	9.46940	-200.99940	276.08328	25.12317	-213.89352	-104.25730	41.13072	406.82559	198.56062	20.71019	430.68713	121.57912	1080.69983	-631.72198	-10.74540	499.62439	-381.35272	147.00385	492.83127	-379.08041	-12.25703	572.82184	560.83221	138.83673	556.77325	562.35138	
3504	35.030	-161.03098	9.65587	-200.91066	278.32086	18.73216	-216.03302	-101.46323	34.31338	404.71436	198.67456	20.67761	430.68747	122.65067	1080.03503	-633.36755	-9.14484	499.24152	-382.06378	148.82021	492.12488	-380.34207	-9.72176	572.77124	559.41119	141.48087	556.63464	561.00446	
3505	35.040	-160.87375	9.87888	-200.91721	280.37192	12.70690	-218.62250	-97.82181	27.31238	402.48553	198.77814	20.70493	430.68060	123.57480	1079.83777	-635.04291	-7.84828	499.05392	-383.62299	150.18381	491.99643	-381.99542	-6.93850	572.49573	558.28186	144.01755	556.72186	559.57703	
3506	35.050	-160.78258	10.07283	-200.90407	281.69229	11.47923	-220.89903	-96.61163	25.76139	399.93741	198.81110	20.48163	430.53717	124.90680	1079.47498	-636.80096	-6.54064	499.03104	-385.15436	152.49512	491.95862	-383.74054	-3.69675	572.59094	556.87207	147.28445	556.69495	557.95087	
3507	35.060	-160.70715	10.27890	-200.92194	282.85452	10.21236	-220.67601	-98.36162	24.60365	399.91296	198.82840	20.33557	430.26218	126.35287	1079.21118	-638.70197	-4.79379	498.72290	-386.21463	153.13197	491.63663	-385.26776	-0.64897	573.61237	555.37073	149.79855	557.61237	556.12885	
3508	35.070	-159.90633	11.14003	-201.37607	282.25565	8.83921	-220.86594	-98.07924	25.23909	400.81375	199.05302	20.98414	429.55090	127.14651	1079.25452	-641.01752	-3.63873	498.75595	-387.51291	154.47055	491.72568	-386.58899	2.41550	575.48883	553.95679	152.77960	559.25232	554.59082	
3509	35.080	-156.27679	15.13401	-201.70352	282.61493	7.89277	-221.91876	-96.36223	25.09724	400.71924	198.60721	24.16003	430.85263	128.03285	1079.24866	-643.73883	-2.46627	499.04315	-388.45236	155.10443	492.16492	-387.90335	5.32035	577.01483	552.86938	155.50262	560.52313	553.09412	
3510	35.090	-150.68829	18.62428	-197.42996	283.32001	8.00292	-221.75235	-95.37056	25.16497	400.36554	196.88539	28.19045	434.29419	129.83286	1078.65210	-646.52045	-1.56466	499.67334	-389.49484	156.40945	492.26471	-389.09842	7.81222	578.24908	551.94104	158.27992	561.60016	551.97296	
3511	35.100	-145.80408	21.50024	-193.91411	283.63330	8.01220	-221.71983	-95.31944	25.22046	400.34744	194.88696	36.00953	435.45163	130.62740	1077.27808	-648.49384	-0.24353	499.75146	-390.13443	158.25882	492.11743	-390.35370	10.15472	579.23492	551.00360	160.38016	562.01434	550.68274	
3512	35.110	-143.84117	33.20466	-195.43617	283.49579	7.91385	-221.69473	-95.28436	25.19376	400.38083	195.68921	45.58115	435.12195	131.89915	1076.10107	-649.87402	0.70288	499.92398	-391.00391	159.58789	492.13580	-390.91721	12.20413	580.31421	550.09711	163.38814	563.21710	550.46844	
3513	35.120	-143.19849	44.08945	-196.29991	283.44397	7.73413	-221.62892	-95.19695	25.14599	400.34680	197.38663	57.43730	432.78387	133.14278	1075.41895	-650.86218	2.03856	499.75409	-391.65341	160.98155	491.94290	-391.45868	13.31325	580.93164	549.44653	164.02354	563.95697	549.50983	
3514	35.130	-142.51955	55.25450	-198.22212	283.41083	7.51848	-221.64659	-95.13613	24.99534	400.35242	201.98192	68.76402	430.24503	134.19037	1075.43970	-651.51099	3.32372	499.36533	-391.92188	162.11763	491.60300	-391.86377	14.53305	581.50720	548.94464	165.17154	564.23981	549.04559	
3515	35.140	-141.26768	68.42988	-200.35976	283.44501	7.45622	-221.61385	-95.16031	24.94720	400.37314	208.74493	81.10734	427.91730	135.84015	1075.66699	-652.04321	4.73741	499.22272	-392.29160	165.18463	490.82132	-391.97662	15.09604	581.60651	548.49487	165.93784	564.27936	548.72668	
3516	35.150	-138.91316	80.73711	-202.40726	283.42026	7.41146	-221.55043	-95.15306	24.81773	400.37338	215.65794	92.76363	425.33517	137.63031	1075.66650	-651.72015	5.88876	498.92599	-392.42389	166.10100	490.62863	-392.23550	15.41460	581.43250	548.00092	166.21005	564.09064	548.54309	
3517	35.160	-135.91664	91.95754	-204.06422	283.56403	7.51623	-221.33388	-95.78844	25.10620	400.43210	221.13799	103.71416	422.52057	139.68922	1075.87903	-651.84094	6.81726	498.95322	-392.73758	166.93706	490.52979	-392.53058	15.85103	581.14667	547.74658	166.71127	563.76202	548.39978	
3518	35.170	-132.78180	102.39760	-206.32224	283.75302	7.56640	-221.09705	-95.83121	24.83483	400.47351	226.65573	114.59358	420.43994	142.18974	1076.16003	-651.41327	7.29308	499.39017	-393.50253	167.57338	490.47836	-392.79794	16.23964	580.96930	547.73480	166.99808	563.45251	548.35852	
3519	35.180	-129.95628	112.52069	-208.60678	283.74939	7.63119	-220.97932	-95.86470	24.59871	400.52371	229.82275	124.64885	417.74826	144.91302	1076.49390	-650.87390	8.15480	499.53424	-393.41281	168.63850	490.58475	-392.63409	16.65518	580.71252	547.57678	167.39732	563.24567	548.31506	
3520	35.190	-127.20902	121.47601	-210.37444	283.46793	7.54286	-220.86691	-96.33898	24.61707	400.33047	234.05510	134.56418	416.03903	147.03291	1076.85144	-650.61780	8.96334	499.43835	-393.50336	169.16191	490.78912	-392.63559	16.87401	580.55096	547.58374	168.02586	562.82428	548.45062	
3521	35.200	-124.89194	129.67041	-212.29576	283.48602	7.56935	-220.71617	-96.17467	23.76571	400.63409	236.15564	143.08467	413.80539	148.58145	1077.14233	-650.07520	9.73983	499.54926	-393.48416	167.22429	491.18866	-392.44153	16.83839	580.28003	547.71307	168.05112	562.29547	548.31836	
3522	35.210	-123.22203	136.72305	-213.75645	283.46249	7.72800	-220.50883	-96.25271	23.50925	400.52710	238.88876	149.47350	412.13785	149.59117	1077.26184	-649.46484	10.61271	499.70657	-393.35663	168.79958	490.87100	-391.69037	16.74791	580.15210	547.73846	167.80945	561.96356	549.02759	
3523	35.220	-121.32409	142.46992	-215.22253	283.39746	7.86737	-220.24458	-96.28553	23.23522	400.59970	241.28485	152.83504	411.10901	150.03503	1077.47400	-648.91174	11.75073	500.03094	-392.82233	169.18837	491.24619	-391.41467	16.42763	579.83685	548.04358	167.98473	561.54315	549.35950	
3524	35.230	-119.85053	145.66499	-216.47000	283.50204	8.08380	-219.97220	-95.85680	22.57903	400.56635	244.32320	153.62700	410.57376	150.65326	1077.62476	-648.30920	12.38808	500.45966	-392.70917	170.27330	491.54068	-391.26999	15.75173	579.65155	548.32477	167.61320	561.34839	550.00500	
3525	35.240	-117.79635	143.92226	-216.61798	283.30862	8.15850	-219.81505	-95.96211	22.37056	400.67648	247.52890	151.87619	410.60159	151.29625	1077.81274	-647.80170	13.19267	501.05728	-392.40668	171.12273	491.76965	-390.87430	15.16412	579.52399	548.83051	167.17307	561.00189	550.51215	
3526	35.250	-115.48358	139.65977	-216.04099	283.26193	8.22218	-219.79675	-96.67790	22.38436	400.90488	249.10240	148.23273	410.86938	152.84814	1078.19006	-646.89160	13.85920	501.23355	-391.91089	171.57108	492.20087	-390.27274	14.97152	579.32166	549.13373	166.63181	560.71796	550.95532	
3527	35.260	-112.62482	134.21933	-215.91441	283.29315	8.40116	-219.62576	-96.87012	22.07775	400.95380	251.41179	144.14523	411.33206	154.53529	1078.48218	-645.91174	14.48661	501.46124	-391.41565	171.92976	492.45157	-389.55072	14.35174	579.13721	549.58789	166.04474	560.50653	551.75873	
3528	35.270	-109.86625	128.42574	-215.81505	283.13165	8.59936	-219.42592	-97.08022	21.86445	400.90427	253.93500	138.77657	411.97571	156.08258	1079.18335	-645.00836	14.70112	501.80048	-391.27301	172.57536	492.78906	-388.76282	13.67788	578.78949	550.12067	165.19316	560.41779	552.30237	
3529	35.280	-106.77132	121.76176	-215.94560	283.14252	8.81132	-219.23468	-96.81728	21.14193	400.75537	254.96552	132.65602	412.14633	157.55450	1080.06384	-643.74103	15.28782	501.88419	-390.81873	172.93866	493.15488	-388.38101	12.83935	578.52423	550.54071	164.97389	560.21246	552.97125	
3530	35.290	-103.96796	114.80791	-216.31818	283.09424	8.95227	-219.08801	-97.10060	21.09635	400.83365	257.09152	125.48089	412.51874	158.41415	1080.88538	-642.23480	15.88996	501.99063	-390.19144	173.54623	493.42181	-387.74313	12.41549	578.30627	551.10651	164.36841	560.06628	553.59692	
3531	35.300	-101.84104	107.45182	-216.62093	282.99057	9.03160	-218.90308	-97.78284	21.20917	401.01593	259.53571	117.78587	412.59610	158.69855	1081.86658	-641.24921	16.33361	502.13779	-390.07547	174.18654	493.26602	-387.28088	11.88572	577.87708	551.59937	163.58362	559.56207	554.40009	
3532	35.310	-99.42719	99.40241	-216.89700	283.06137	9.38826	-218.47995	-97.95530	20.82084	401.06140	261.87418	109.77284	413.01895	159.19426	1082.13611	-639.91425	17.01591	502.38651	-389.53052	174.78394	493.92172	-386.41895	11.05889	577.21863	551.97040	162.49988	558.98413	555.04028	
3533	35.320	-97.17354	91.21088	-217.22891	282.84689	9.55724	-218.30444	-98.16393	20.14411	401.13577	263.70230	101.39368	413.42935	158.86995	1082.37537	-639.09973	17.53789	502.65915	-389.07620	175.49944	494.02631	-385.67883	10.18786	576.64447	552.63672	162.05702	558.44714	555.85583	
3534	35.330	-94.22478	82.25839	-217.05791	282.58582	9.54324	-218.23540	-97.80627	19.27151	401.16483	265.39404	92.66447	413.92053	158.84576	1082.45227	-638.08636	18.56489	502.70221	-388.06210	176.14792	494.18533	-385.11536	9.40570	576.00165	553.38263	161.38734	558.06134	556.59943	
3535	35.340	-91.71001	73.16172	-217.05614	282.49350	9.75348	-218.04817	-97.97163	19.03009	401.31158	265.64078	83.40488	414.48074	159.33328	1082.54712	-637.25885	18.55829	503.19623	-388.00287	176.61858	494.75354	-384.33020	8.94953	575.59369	553.91687	160.16672	557.75348	557.34772	
